<svg xmlns="http://www.w3.org/2000/svg" width="216" height="475" viewBox="0 0 216 475"><title>balon-svg</title><g id="Layer_2" data-name="Layer 2"><path d="M911.34,584C968.29,582.07,1014,523.72,1014,452c0-72.9-47.23-132-105.5-132S803,379.1,803,452c0,71.48,45.41,129.69,102.1,131.93l-3.6,15.57,7-3,6,3Z" transform="translate(-800.5 -316.5)" fill="#f15a24"/><path d="M576,692.56" transform="translate(-800.5 -316.5)" fill="none" stroke="#000" stroke-linecap="round" stroke-miterlimit="10" stroke-width="6"/><path d="M620.05,470" transform="translate(-800.5 -316.5)" fill="none" stroke="#000" stroke-miterlimit="10" stroke-width="5"/><path d="M936.25,579.61c45.14-15,78.41-66.43,78.41-127.61,0-57.09-29-105.72-69.53-124.13a92,92,0,0,0-8.87-3.47q-3.59-1.2-7.26-2.07c11.7,6.14,35.47,20.71,52.16,49.17,18.39,31.39,17.54,61.36,17,80-1.52,51.7-25.31,86.94-31,95A168.22,168.22,0,0,1,936.25,579.61Z" transform="translate(-800.5 -316.5)" fill="#d44d00"/><path d="M881.4,579.61C836.27,564.64,803,513.18,803,452c0-57.09,29-105.72,69.52-124.13a92.22,92.22,0,0,1,8.88-3.47q3.58-1.2,7.26-2.07C877,328.47,853.18,343,836.5,371.5c-18.4,31.39-17.55,61.36-17,80,1.51,51.7,25.31,86.94,31,95A167.92,167.92,0,0,0,881.4,579.61Z" transform="translate(-800.5 -316.5)" fill="#d44d00"/><path d="M911.34,583C968.29,581.07,1014,522.72,1014,451c0-72.9-47.23-132-105.5-132S803,378.1,803,451c0,71.48,45.41,129.69,102.1,131.93l-3.6,15.57,7-3,6,3Z" transform="translate(-800.5 -316.5)" fill="none" stroke="#000" stroke-miterlimit="10" stroke-width="5"/><path d="M911.5,582.76a10.35,10.35,0,0,0-6.59,0c-9.47,3.57-9.45,23.77-9.41,26.74.48,32.29,34.75,39.8,35,64,.29,27.13-42.58,35.28-45,64-1.72,20.43,18,39,36,52" transform="translate(-800.5 -316.5)" fill="none" stroke="#000" stroke-linecap="round" stroke-miterlimit="10" stroke-width="4"/><path id="heart" d="M910.74,517c4.5-3.31,5.08-5.17,4.78-6.25-.58-2.13-4.7-1.82-5.88-4.41s1.32-6,2.36-7.36c11.88-15.92,43.49-41.6,41.48-59.84-.79-7.15-6.69-12.7-11.85-14.82-8.75-3.58-20.48.4-29.6,10.5-9.12-10.1-20.71-14.08-29.46-10.5-8.5,3.49-11.39,13.15-11.85,14.82-4.78,17.31,5.48,35.52,34.51,54.69" transform="translate(-800.5 -316.5)" fill="none" stroke="#fff" stroke-linecap="round" stroke-miterlimit="10" stroke-width="4"/><path d="M680.57,474.6" transform="translate(-800.5 -316.5)" fill="none" stroke="#000" stroke-linecap="round" stroke-miterlimit="10" stroke-width="5"/></g></svg>