<svg xmlns="http://www.w3.org/2000/svg" width="1922.001" height="1040.765" viewBox="0 0 100% 100%">
  <g id="Group_113" data-name="Group 113" transform="translate(977.501 -1572.376)">
    <path id="Union_1" data-name="Union 1" d="M1558,1884.764H-364v-70.069a650.673,650.673,0,0,0,89.6,35.933c24.909,7.885,100.713,31.88,198.876,31.877,78.536,0,154.024-15.252,224.366-45.324a555.2,555.2,0,0,0,75.858-39.57,510.8,510.8,0,0,0,60.44-44.129,404.694,404.694,0,0,0,44.249-43.656c5.841-6.793,11.159-13.549,15.809-20.079a186.04,186.04,0,0,0,11.471-18.076c7.842-14.266,14.767-28.364,20.583-41.9,4.652-10.83,8.611-21.328,11.763-31.2,5.387-16.875,6.55-26.107,6.561-26.2.088-.716.178-1.489.275-2.3a168.961,168.961,0,0,1,7.318-34.934,157.837,157.837,0,0,1,8.087-19.84,166.444,166.444,0,0,1,19.433-30.848,157.786,157.786,0,0,1,19.637-20.495,149.883,149.883,0,0,1,37.3-23.986,101.533,101.533,0,0,1,21.76-6.9c10.538-2.229,24.527-4.031,42.769-5.512,21.466-1.741,41.741-3.388,64.68-3.388a468.683,468.683,0,0,1,51.615,2.87,380.106,380.106,0,0,1,55.668,10.061c16.351,4.018,30.47,7.489,58.639,8.042,2.394.047,4.79.071,7.12.071a255.669,255.669,0,0,0,46.541-3.844,143.349,143.349,0,0,0,24.156-6.573,176.141,176.141,0,0,0,26.244-11.8,128.29,128.29,0,0,0,15.959-10.617,114.422,114.422,0,0,0,15.683-14.822c11.262-12.9,16.87-27.431,28.043-56.373a356,356,0,0,0,12.53-37.947c2.672-9.676,4.436-16.068,10.735-27.225a166.234,166.234,0,0,1,16.486-24.994,107.829,107.829,0,0,1,13.35-13.648,97.462,97.462,0,0,1,17.8-12.046,73.515,73.515,0,0,1,20.118-7.106c9.066-1.988,21.423-3.73,41.319-5.823,44.338-4.666,67.92-5.768,83.51-6.207,49.429-1.391,85.869-19.877,121.109-37.756,5.888-2.987,13.053-6.709,21.565-11.666a359.286,359.286,0,0,0,30.844-20.133c27.685-20.2,51.2-43.606,69.894-69.576a119.118,119.118,0,0,1,10.607-12.66c3.649-3.826,7.717-7.69,12.437-11.811,8.764-7.653,18.477-15.031,27.871-22.166l0,0c9.394-7.136,19.108-14.515,27.781-22.108,4.668-4.087,8.678-7.913,12.257-11.7a112.212,112.212,0,0,0,10.327-12.489,294.356,294.356,0,0,0,22.051-36.768,306.27,306.27,0,0,0,15.231-35.581c9.62-27.1,12.695-47.826,13.672-57.766V1884.764h0Z" transform="translate(-613.501 728.377)" fill="#fff"/>
  </g>
</svg>
