<svg xmlns="http://www.w3.org/2000/svg" width="1921" height="2300.316" viewBox="0 0 100% 100%">
  <defs>
    <style>
      .cls-1 {
        fill: #fff;
      }
    </style>
  </defs>
  <path id="Union_3" data-name="Union 3" d="M90,1571.18a656.666,656.666,0,0,1-90-35.365V31H1920V585h-.334c-2.2,27.951-15.627,80.757-51.133,130.019-24.328,33.753-75.832,56.4-101.119,90.776-43.629,59.3-101.75,88.918-122.1,99.02-35.012,17.378-71.563,35.521-120.911,36.88-16.221.446-40.081,1.606-83.373,6.062-39.362,4.053-50.2,6.907-61.336,12.631-27,13.874-40.078,36.546-47.557,49.51-11.7,20.281-7.672,24.242-23.225,63.655-11.17,28.31-16.756,42.466-28,55.067-19.972,22.387-45.006,31.751-57.792,36.374-10.4,3.761-33.453,10.955-77.689,10.1-51.42-.988-55.468-11.384-114.119-17.682-46.653-5.009-80.4-2.33-116.1.506-39.235,3.115-53.156,7.2-64.425,12.125a154.086,154.086,0,0,0-56.845,43.448,160.506,160.506,0,0,0-27.475,49.51c-5.56,16.59-6.7,29.374-7.58,36.374,0,0-4.522,35.906-38.844,97-24.676,43.924-96.592,115.284-207.485,161.665-80.055,33.484-157.3,44.269-224,44.271C193.737,1602.319,120.2,1580.532,90,1571.18Z" transform="translate(0.5 -30.5)" fill="#fff" stroke="rgba(0,0,0,0)" stroke-miterlimit="10" stroke-width="1"/>
</svg>
