<svg xmlns="http://www.w3.org/2000/svg" width="375.001" height="811.995" viewBox="0 0 100% 100%">
  <defs>
    <style>
      .cls-1 {
        fill: #fff;
      }
    </style>
  </defs>
  <path id="Subtraction_1" preserveAspectRatio="none" data-name="Subtraction 1" class="cls-1" d="M-58,812H-433V581.614a147.686,147.686,0,0,0,14.5-6.824c4.992-2.649,9.876-5.532,14.517-8.571a160.654,160.654,0,0,0,16.162-12.045c12.528-10.676,21.832-22.323,27.652-34.618a74.734,74.734,0,0,0,5.414-48.833,105.351,105.351,0,0,1-2.323-26.79,105.778,105.778,0,0,1,3.92-24.165,128.453,128.453,0,0,1,19.256-39.286,161.037,161.037,0,0,1,11.678-14.538c3.375-3.742,6.943-7.357,10.605-10.745a121.874,121.874,0,0,1,10.679-8.946,147.585,147.585,0,0,0,16.565-9.123,197.722,197.722,0,0,0,16.638-11.643,185.817,185.817,0,0,0,18.593-16.575c14.451-14.782,25.286-31.129,32.2-48.586,8.648-21.821,11.166-45.449,7.484-70.226a100.979,100.979,0,0,1-.964-19.941,106.318,106.318,0,0,1,2.794-19.232,122.039,122.039,0,0,1,6.045-18.445A147.548,147.548,0,0,1-192.8,114.9c11.8-20.213,29.439-40.431,52.442-60.094,9.057-7.742,18.98-15.418,29.492-22.815,8.435-5.935,17.271-11.707,26.262-17.157C-69.1,5.443-58.446.223-58,.006V812Z" transform="translate(433.001 -0.006)"/>
</svg>
