<svg id="Capa_1" enable-background="new 0 0 512 512" height="512" viewBox="0 0 512 512" width="512" xmlns="http://www.w3.org/2000/svg"><g><path d="m505.084 235.499-12.067-12.067-15.501-155.482 6.851-6.851c9.219-9.232 9.218-24.244-.003-33.463-9.22-9.222-24.232-9.223-33.467-.001l-6.848 6.848-62.126-6.197c-4.124-.422-7.796 2.596-8.207 6.719-.411 4.121 2.597 7.796 6.719 8.207l49.908 4.978-56.284 56.284-17.466-17.467c-2.93-2.928-7.678-2.928-10.608 0-2.929 2.93-2.929 7.678 0 10.608l22.77 22.77c2.929 2.927 7.677 2.929 10.608 0l82.137-82.139c3.385-3.377 8.882-3.378 12.257-.003 3.376 3.375 3.374 8.873-.001 12.252l-82.141 82.142c-2.929 2.93-2.929 7.678 0 10.608l102.862 102.862c3.376 3.375 3.374 8.874.004 12.25-3.382 3.377-8.88 3.38-12.256.003l-102.863-102.863c-1.407-1.406-3.315-2.196-5.304-2.196s-3.897.79-5.304 2.196l-187.863 187.865c-3.374 3.376-8.875 3.375-12.249.005-3.378-3.384-3.38-8.883-.004-12.258l187.864-187.863c1.406-1.407 2.196-3.315 2.196-5.304s-.79-3.897-2.196-5.304l-102.864-102.863c-3.376-3.375-3.374-8.873-.004-12.248 3.383-3.38 8.883-3.381 12.258-.004l55.341 55.341c2.93 2.928 7.678 2.928 10.608 0 2.929-2.93 2.929-7.678 0-10.608l-26.531-26.531 40.303 4.017c.253.025.504.038.753.038 3.808 0 7.069-2.889 7.454-6.757.411-4.122-2.598-7.796-6.719-8.207l-58.534-5.834-12.067-12.067c-9.221-9.219-24.233-9.221-33.471.004-9.219 9.232-9.218 24.244.003 33.464l3.478 3.478-69.962 258.124-18.517 18.517c-7.215 7.215-8.758 17.969-4.677 26.736-1.553.955-2.988 1.5-4.676 2.137-3.739 1.41-8.393 3.166-14.404 9.176-6.875 6.868-7.314 13.795-7.635 18.853-.258 4.079-.4 6.326-3.268 9.191-2.869 2.869-5.118 3.013-9.2 3.273-5.056.323-11.979.766-18.851 7.636-1.394 1.394-2.513 2.79-3.43 4.172l-8.788-19.152c-3.78-8.238-11.364-14.113-20.286-15.714-8.917-1.604-18.075 1.269-24.484 7.678l-16.07 16.07c-6.409 6.41-9.279 15.564-7.678 24.486 1.602 8.922 7.476 16.505 15.714 20.285l20.464 9.389c-1.603 3.923-1.848 7.592-2.04 10.599-.261 4.083-.405 6.331-3.274 9.2s-5.118 3.013-9.2 3.273c-5.056.323-11.98.766-18.85 7.637-5.985 5.984-7.816 10.689-9.287 14.468-1.253 3.221-2.158 5.547-5.914 9.302-2.929 2.93-2.929 7.678 0 10.608 1.465 1.464 3.385 2.196 5.304 2.196s3.839-.732 5.304-2.196c5.985-5.985 7.815-10.689 9.286-14.469 1.253-3.22 2.158-5.546 5.914-9.301 2.869-2.87 5.118-3.014 9.2-3.274 5.055-.323 11.979-.766 18.85-7.636 6.871-6.871 7.314-13.795 7.636-18.851.057-.9.111-1.708.188-2.456l12.794 27.886c3.779 8.238 11.363 14.113 20.285 15.714 1.629.293 3.265.437 4.891.437 7.281 0 14.355-2.875 19.595-8.114l16.07-16.07c6.409-6.41 9.279-15.563 7.678-24.484-1.602-8.922-7.476-16.505-15.714-20.286l-26.779-12.287c.241-3.648.526-5.8 3.227-8.502 2.869-2.869 5.118-3.013 9.2-3.274 5.056-.323 11.979-.766 18.848-7.634 6.875-6.868 7.314-13.794 7.635-18.852.258-4.079.4-6.326 3.269-9.192 3.727-3.727 5.978-4.575 9.093-5.751 2.736-1.032 5.966-2.257 9.856-5.192 3.417 1.777 7.178 2.669 10.941 2.669 6.061-.001 12.12-2.306 16.731-6.916l18.517-18.517 132.064-35.799c3.998-1.083 6.36-5.202 5.277-9.2-1.085-3.998-5.209-6.359-9.201-5.277l-106.819 28.956 142.722-142.723 81.854 81.854-83.976 22.763c-3.998 1.084-6.361 5.203-5.277 9.201.906 3.341 3.932 5.54 7.235 5.54.649 0 1.311-.085 1.967-.263l92.28-25.013 3.477 3.477c9.221 9.223 24.233 9.223 33.471-.004 9.215-9.234 9.214-24.246-.006-33.466zm-41.276-153.841 12.465 125.031-68.748-68.747zm-205.07-25.57 81.854 81.853-142.723 142.722zm-185.69 382.864c-3.772-3.771-3.772-9.907 0-13.679 1.886-1.886 4.362-2.829 6.839-2.829 2.478 0 4.954.943 6.84 2.828 3.772 3.773 3.772 9.909.001 13.68-3.773 3.77-9.91 3.772-13.68 0zm-43.7-26.56c-.745-4.152.538-8.245 3.522-11.228l16.07-16.07c2.982-2.983 7.073-4.267 11.227-3.522 4.152.745 7.542 3.372 9.302 7.206l8.607 18.759c-5.701.417-11.285 2.779-15.635 7.129-4.349 4.35-6.712 9.933-7.128 15.634l-18.758-8.606c-3.835-1.76-6.462-5.15-7.207-9.302zm101.079 39.442c.745 4.152-.538 8.244-3.522 11.227l-16.07 16.07c-2.983 2.984-7.076 4.263-11.228 3.522-4.152-.745-7.542-3.372-9.302-7.206l-8.607-18.759c5.7-.417 11.285-2.779 15.634-7.128h.001c4.349-4.35 6.712-9.933 7.128-15.634l18.758 8.607c3.836 1.759 6.463 5.148 7.208 9.301z"/></g></svg>