<svg id="Capa_1" enable-background="new 0 0 512 512" height="512" viewBox="0 0 512 512" width="512" xmlns="http://www.w3.org/2000/svg"><g><path d="m504.5 92.04c4.143 0 7.5-3.357 7.5-7.5v-36.63c0-26.418-21.492-47.91-47.91-47.91h-416.18c-26.418 0-47.91 21.492-47.91 47.91v314.84c0 4.143 3.357 7.5 7.5 7.5s7.5-3.357 7.5-7.5v-99.25h20.5v28c0 4.143 3.357 7.5 7.5 7.5h35.5c4.143 0 7.5-3.357 7.5-7.5v-28h20.5v28c0 4.143 3.357 7.5 7.5 7.5h35.5c4.143 0 7.5-3.357 7.5-7.5v-28h20.5v28c0 4.143 3.357 7.5 7.5 7.5h35.5c4.143 0 7.5-3.357 7.5-7.5v-28h20.5v28c0 4.143 3.357 7.5 7.5 7.5h28v20.5h-28c-4.143 0-7.5 3.357-7.5 7.5v35.5c0 4.143 3.357 7.5 7.5 7.5h28v20.5h-28c-4.143 0-7.5 3.357-7.5 7.5v35.5c0 4.143 3.357 7.5 7.5 7.5h28v20.5h-28c-4.143 0-7.5 3.357-7.5 7.5v28h-200.59c-18.146 0-32.91-14.764-32.91-32.91v-66.34c0-4.143-3.357-7.5-7.5-7.5s-7.5 3.357-7.5 7.5v66.34c0 26.418 21.492 47.91 47.91 47.91h416.18c26.418 0 47.91-21.492 47.91-47.91v-344.55c0-4.143-3.357-7.5-7.5-7.5s-7.5 3.357-7.5 7.5v128.96h-20.5v-28c0-4.143-3.357-7.5-7.5-7.5h-35.5c-4.143 0-7.5 3.357-7.5 7.5v28h-20.5v-28c0-4.143-3.357-7.5-7.5-7.5h-35.5c-4.143 0-7.5 3.357-7.5 7.5v28h-20.5v-28c0-4.143-3.357-7.5-7.5-7.5h-35.5c-4.143 0-7.5 3.357-7.5 7.5v28h-20.5v-28c0-4.143-3.357-7.5-7.5-7.5h-28v-20.5h28c4.143 0 7.5-3.357 7.5-7.5v-35.5c0-4.143-3.357-7.5-7.5-7.5h-28v-20.5h28c4.143 0 7.5-3.357 7.5-7.5v-35.5c0-4.143-3.357-7.5-7.5-7.5h-28v-20.5h28c4.143 0 7.5-3.357 7.5-7.5v-28h200.59c18.146 0 32.91 14.764 32.91 32.91v36.63c0 4.143 3.357 7.5 7.5 7.5zm-213 171.46c4.143 0 7.5-3.357 7.5-7.5v-28h20.5v28c0 4.143 3.357 7.5 7.5 7.5h35.5c4.143 0 7.5-3.357 7.5-7.5v-28h20.5v28c0 4.143 3.357 7.5 7.5 7.5h35.5c4.143 0 7.5-3.357 7.5-7.5v-28h20.5v28c0 4.143 3.357 7.5 7.5 7.5h28v200.59c0 18.146-14.764 32.91-32.91 32.91h-200.59v-20.5h28c4.143 0 7.5-3.357 7.5-7.5v-35.5c0-4.143-3.357-7.5-7.5-7.5h-28v-20.5h28c4.143 0 7.5-3.357 7.5-7.5v-35.5c0-4.143-3.357-7.5-7.5-7.5h-28v-20.5h28c4.143 0 7.5-3.357 7.5-7.5v-35.5c0-4.143-3.357-7.5-7.5-7.5h-28v-20.5zm-43-228h-28c-4.143 0-7.5 3.357-7.5 7.5v35.5c0 4.143 3.357 7.5 7.5 7.5h28v20.5h-28c-4.143 0-7.5 3.357-7.5 7.5v35.5c0 4.143 3.357 7.5 7.5 7.5h28v20.5h-28c-4.143 0-7.5 3.357-7.5 7.5v35.5c0 4.143 3.357 7.5 7.5 7.5h28v20.5h-28c-4.143 0-7.5 3.357-7.5 7.5v28h-20.5v-28c0-4.143-3.357-7.5-7.5-7.5h-35.5c-4.143 0-7.5 3.357-7.5 7.5v28h-20.5v-28c0-4.143-3.357-7.5-7.5-7.5h-35.5c-4.143 0-7.5 3.357-7.5 7.5v28h-20.5v-28c0-4.143-3.357-7.5-7.5-7.5h-28v-200.59c0-18.146 14.764-32.91 32.91-32.91h200.59z"/></g></svg>