<svg id="Capa_1" enable-background="new 0 0 512 512" height="512" viewBox="0 0 512 512" width="512" xmlns="http://www.w3.org/2000/svg"><g><g><path d="m33.76 358.46h56.57c13.838 0 25.338-10.196 27.385-23.469 3.885 2.079 8.319 3.261 13.024 3.261h56.569c13.835 0 25.333-10.194 27.379-23.465 3.887 2.08 8.323 3.263 13.032 3.263h56.56c13.84 0 25.342-10.194 27.387-23.466 3.885 2.079 8.319 3.261 13.024 3.261h56.569c13.836 0 25.335-10.196 27.379-23.468 3.887 2.079 8.322 3.262 13.03 3.262h56.57c15.273 0 27.7-12.426 27.7-27.7v-138.469c0-4.142-3.358-7.5-7.5-7.5s-7.5 3.358-7.5 7.5v138.47c0 7.003-5.697 12.7-12.7 12.7h-56.57c-6.986 0-12.67-5.661-12.707-12.633v-222.304c0-.016-.001-.031-.001-.047.026-6.982 5.716-12.656 12.71-12.656h56.57c7.002 0 12.7 5.697 12.7 12.7v48.77c0 4.142 3.358 7.5 7.5 7.5s7.5-3.358 7.5-7.5v-48.77c0-15.274-12.426-27.7-27.7-27.7h-56.57c-7.964 0-15.149 3.38-20.208 8.776-5.058-5.396-12.241-8.776-20.202-8.776h-56.569c-7.961 0-15.144 3.381-20.202 8.776-5.06-5.395-12.245-8.776-20.209-8.776h-56.56c-7.964 0-15.149 3.381-20.209 8.776-5.058-5.395-12.24-8.776-20.202-8.776h-56.569c-7.961 0-15.144 3.38-20.202 8.776-5.059-5.396-12.244-8.776-20.208-8.776h-56.57c-15.274 0-27.7 12.426-27.7 27.7v165.05c0 4.142 3.358 7.5 7.5 7.5s7.5-3.358 7.5-7.5v-165.05c0-7.003 5.697-12.7 12.7-12.7h56.57c6.993 0 12.684 5.674 12.708 12.656 0 .016-.001.031-.001.047l.003 303.047c0 7.008-5.702 12.71-12.71 12.71h-56.57c-7.002 0-12.7-5.702-12.7-12.71v-103c0-4.142-3.358-7.5-7.5-7.5s-7.5 3.358-7.5 7.5v103c0 15.279 12.426 27.71 27.7 27.71zm290.931-343.46h56.569c6.989 0 12.676 5.674 12.701 12.657 0 .014-.001.029-.001.043l.003 242.442c0 7.005-5.699 12.704-12.703 12.704h-56.569c-6.988 0-12.674-5.673-12.701-12.656v-242.49c0-.01-.001-.02-.001-.03.019-6.989 5.709-12.67 12.702-12.67zm-193.951 0h56.569c6.993 0 12.683 5.681 12.701 12.67 0 .01-.001.02-.001.03v92.3c0 4.142 3.358 7.5 7.5 7.5s7.5-3.358 7.5-7.5c0 0 .002-92.32.002-92.331.017-6.988 5.711-12.669 12.709-12.669h56.56c6.998 0 12.692 5.681 12.709 12.669 0 .011.002 262.681.002 262.681 0 7.002-5.702 12.7-12.71 12.7h-56.56c-6.992 0-12.682-5.671-12.708-12.652l-.003-135.398c0-4.142-3.358-7.5-7.5-7.5s-7.5 3.358-7.5 7.5l.002 155.549c0 7.004-5.699 12.703-12.703 12.703h-56.569c-6.982 0-12.663-5.663-12.7-12.636v-282.916c0-.014-.001-.029-.001-.043.025-6.983 5.712-12.657 12.701-12.657z"/><path d="m62.049 79.65c13.047 0 23.663-10.615 23.663-23.663s-10.616-23.662-23.663-23.662-23.663 10.615-23.663 23.663 10.615 23.662 23.663 23.662zm0-32.325c4.776 0 8.663 3.886 8.663 8.663s-3.886 8.663-8.663 8.663-8.663-3.886-8.663-8.663 3.886-8.663 8.663-8.663z"/><path d="m62.049 326.13c13.047 0 23.663-10.615 23.663-23.663s-10.615-23.663-23.663-23.663-23.663 10.615-23.663 23.663 10.615 23.663 23.663 23.663zm0-32.325c4.776 0 8.663 3.886 8.663 8.663s-3.886 8.663-8.663 8.663-8.663-3.886-8.663-8.663 3.886-8.663 8.663-8.663z"/><path d="m159.024 79.65c13.047 0 23.663-10.615 23.663-23.663s-10.615-23.663-23.663-23.663-23.663 10.615-23.663 23.663 10.616 23.663 23.663 23.663zm0-32.325c4.776 0 8.663 3.886 8.663 8.663s-3.886 8.663-8.663 8.663-8.663-3.886-8.663-8.663 3.887-8.663 8.663-8.663z"/><path d="m159.024 305.927c13.047 0 23.663-10.615 23.663-23.663s-10.615-23.663-23.663-23.663-23.663 10.615-23.663 23.663 10.616 23.663 23.663 23.663zm0-32.325c4.776 0 8.663 3.886 8.663 8.663s-3.886 8.663-8.663 8.663-8.663-3.886-8.663-8.663 3.887-8.663 8.663-8.663z"/><path d="m256 79.65c13.047 0 23.663-10.615 23.663-23.663s-10.616-23.662-23.663-23.662-23.663 10.615-23.663 23.663 10.616 23.662 23.663 23.662zm0-32.325c4.776 0 8.663 3.886 8.663 8.663s-3.887 8.662-8.663 8.662-8.663-3.886-8.663-8.663 3.887-8.662 8.663-8.662z"/><path d="m256 285.724c13.047 0 23.663-10.615 23.663-23.663s-10.616-23.663-23.663-23.663-23.663 10.615-23.663 23.663 10.616 23.663 23.663 23.663zm0-32.326c4.776 0 8.663 3.886 8.663 8.663s-3.886 8.663-8.663 8.663-8.663-3.886-8.663-8.663 3.887-8.663 8.663-8.663z"/><path d="m352.976 79.65c13.047 0 23.663-10.615 23.663-23.663s-10.615-23.663-23.663-23.663-23.663 10.615-23.663 23.663 10.615 23.663 23.663 23.663zm0-32.325c4.776 0 8.663 3.886 8.663 8.663s-3.886 8.663-8.663 8.663-8.663-3.886-8.663-8.663 3.886-8.663 8.663-8.663z"/><path d="m352.976 265.521c13.047 0 23.663-10.615 23.663-23.663s-10.615-23.663-23.663-23.663-23.663 10.615-23.663 23.663 10.615 23.663 23.663 23.663zm0-32.326c4.776 0 8.663 3.886 8.663 8.663s-3.886 8.663-8.663 8.663-8.663-3.886-8.663-8.663 3.886-8.663 8.663-8.663z"/><path d="m449.951 32.325c-13.047 0-23.663 10.615-23.663 23.663s10.615 23.663 23.663 23.663 23.663-10.615 23.663-23.663-10.615-23.663-23.663-23.663zm0 32.325c-4.776 0-8.663-3.886-8.663-8.663s3.886-8.663 8.663-8.663 8.663 3.886 8.663 8.663-3.886 8.663-8.663 8.663z"/><path d="m449.951 197.992c-13.047 0-23.663 10.615-23.663 23.663s10.615 23.663 23.663 23.663 23.663-10.615 23.663-23.663-10.615-23.663-23.663-23.663zm0 32.325c-4.776 0-8.663-3.886-8.663-8.663s3.886-8.663 8.663-8.663 8.663 3.886 8.663 8.663-3.886 8.663-8.663 8.663z"/><path d="m411.565 456.593h-316.343c-3.611-22.865-23.451-40.406-47.315-40.406-26.416 0-47.907 21.491-47.907 47.906 0 26.416 21.491 47.907 47.907 47.907 23.864 0 43.704-17.541 47.315-40.407h316.343c4.142 0 7.5-3.358 7.5-7.5s-3.358-7.5-7.5-7.5zm-363.658 40.407c-18.145 0-32.907-14.762-32.907-32.907s14.762-32.906 32.907-32.906 32.906 14.762 32.906 32.906c0 18.145-14.762 32.907-32.906 32.907z"/><path d="m464.093 353.557c-23.864 0-43.704 17.541-47.315 40.406h-316.343c-4.142 0-7.5 3.358-7.5 7.5s3.358 7.5 7.5 7.5h316.343c3.611 22.865 23.451 40.407 47.315 40.407 26.416 0 47.907-21.491 47.907-47.907 0-26.415-21.491-47.906-47.907-47.906zm0 80.813c-18.145 0-32.906-14.762-32.906-32.907s14.762-32.906 32.906-32.906c18.145 0 32.907 14.762 32.907 32.906 0 18.145-14.762 32.907-32.907 32.907z"/></g></g></svg>